G04 #@! TF.FileFunction,Copper,L1,Top,Signal*
%FSLAX46Y46*%
G04 Gerber Fmt 4.6, Leading zero omitted, Abs format (unit mm)*
G04 Created by KiCad (PCBNEW (2015-07-04 BZR 5884, Git c1bbf3e)-product) date 31/12/2015 2:34:29 PM*
%MOMM*%
G01*
G04 APERTURE LIST*
%ADD10C,0.100000*%
%ADD11C,1.350000*%
%ADD12C,3.000000*%
%ADD13O,1.000000X1.600000*%
%ADD14C,1.100000*%
%ADD15C,0.600000*%
%ADD16C,0.400000*%
%ADD17C,0.254000*%
G04 APERTURE END LIST*
D10*
D11*
X153500000Y-92780000D03*
X146500000Y-92780000D03*
X149000000Y-92780000D03*
D12*
X156570000Y-95490000D03*
D11*
X151000000Y-92780000D03*
D12*
X143430000Y-95490000D03*
D13*
X154100000Y-100000000D03*
D14*
X151300000Y-100775000D03*
X150000000Y-100775000D03*
X150650000Y-99225000D03*
X149350000Y-99225000D03*
X148700000Y-100775000D03*
D13*
X145900000Y-100000000D03*
D15*
X151300000Y-100775000D02*
X151300000Y-100421000D01*
X151300000Y-100421000D02*
X151700001Y-100020999D01*
X151700001Y-100020999D02*
X151700001Y-97980001D01*
X151700001Y-97980001D02*
X147174999Y-93454999D01*
X147174999Y-93454999D02*
X146500000Y-92780000D01*
D16*
X149350000Y-93130000D02*
X149000000Y-92780000D01*
D17*
G36*
X158193000Y-94633699D02*
X158119758Y-94456440D01*
X157606264Y-93942048D01*
X156935007Y-93663318D01*
X156208182Y-93662684D01*
X155536440Y-93940242D01*
X155022048Y-94453736D01*
X154743318Y-95124993D01*
X154742684Y-95851818D01*
X155020242Y-96523560D01*
X155533736Y-97037952D01*
X156204993Y-97316682D01*
X156931818Y-97317316D01*
X157603560Y-97039758D01*
X158117952Y-96526264D01*
X158193000Y-96345528D01*
X158193000Y-96835699D01*
X155329707Y-98744561D01*
X155308193Y-98766030D01*
X155282918Y-98782918D01*
X155266207Y-98807927D01*
X155244917Y-98829173D01*
X155233255Y-98857244D01*
X155216369Y-98882516D01*
X155210502Y-98912013D01*
X155198961Y-98939792D01*
X155198929Y-98970191D01*
X155193000Y-99000000D01*
X155193000Y-102193000D01*
X144807000Y-102193000D01*
X144807000Y-101601433D01*
X148053172Y-101601433D01*
X148096508Y-101821701D01*
X148543001Y-101972972D01*
X149013396Y-101941863D01*
X149303492Y-101821701D01*
X149346828Y-101601433D01*
X148700000Y-100954605D01*
X148053172Y-101601433D01*
X144807000Y-101601433D01*
X144807000Y-101378492D01*
X147653299Y-101378492D01*
X147873567Y-101421828D01*
X148520395Y-100775000D01*
X147873567Y-100128172D01*
X147653299Y-100171508D01*
X146727000Y-100171508D01*
X146727000Y-99677921D01*
X146664048Y-99361442D01*
X146484777Y-99093144D01*
X146216479Y-98913873D01*
X145900000Y-98850921D01*
X145583521Y-98913873D01*
X145315223Y-99093144D01*
X145135952Y-99361442D01*
X145073000Y-99677921D01*
X145073000Y-100322079D01*
X145135952Y-100638558D01*
X145315223Y-100906856D01*
X145583521Y-101086127D01*
X145900000Y-101149079D01*
X146216479Y-101086127D01*
X146484777Y-100906856D01*
X146664048Y-100638558D01*
X146727000Y-100322079D01*
X146727000Y-100171508D01*
X147653299Y-100171508D01*
X146727000Y-100171508D01*
X146727000Y-100171508D01*
X147653299Y-100171508D01*
X147502028Y-100618001D01*
X147533137Y-101088396D01*
X147653299Y-101378492D01*
X144807000Y-101378492D01*
X144807000Y-99000000D01*
X144801070Y-98970186D01*
X144801038Y-98939792D01*
X144789499Y-98912016D01*
X144783631Y-98882516D01*
X144766744Y-98857243D01*
X144755083Y-98829173D01*
X144733792Y-98807927D01*
X144717082Y-98782918D01*
X144691809Y-98766031D01*
X144670293Y-98744560D01*
X143640658Y-98058137D01*
X149036604Y-98058137D01*
X148746508Y-98178299D01*
X148703172Y-98398567D01*
X149350000Y-99045395D01*
X149996828Y-98398567D01*
X149953492Y-98178299D01*
X149506999Y-98027028D01*
X149036604Y-98058137D01*
X143640658Y-98058137D01*
X141807000Y-96835699D01*
X141807000Y-96346301D01*
X141880242Y-96523560D01*
X142393736Y-97037952D01*
X143064993Y-97316682D01*
X143791818Y-97317316D01*
X144463560Y-97039758D01*
X144977952Y-96526264D01*
X145256682Y-95855007D01*
X145257316Y-95128182D01*
X144979758Y-94456440D01*
X144466264Y-93942048D01*
X143795007Y-93663318D01*
X143068182Y-93662684D01*
X142396440Y-93940242D01*
X141882048Y-94453736D01*
X141807000Y-94634472D01*
X141807000Y-91930051D01*
X145933154Y-91930051D01*
X145651041Y-92211672D01*
X145498175Y-92579816D01*
X145497827Y-92978436D01*
X145650051Y-93346846D01*
X145931672Y-93628959D01*
X146299816Y-93781825D01*
X146615388Y-93782100D01*
X151073001Y-98239713D01*
X151073001Y-98451044D01*
X150825211Y-98348153D01*
X150476319Y-98347849D01*
X150153869Y-98481082D01*
X149906949Y-98727571D01*
X149821678Y-98932927D01*
X149529605Y-99225000D01*
X149543748Y-99239143D01*
X149364143Y-99418748D01*
X149350000Y-99404605D01*
X149335858Y-99418748D01*
X149156253Y-99239143D01*
X149170395Y-99225000D01*
X148523567Y-98578172D01*
X148303299Y-98621508D01*
X148152028Y-99068001D01*
X148183137Y-99538396D01*
X148237591Y-99669860D01*
X148096508Y-99728299D01*
X148053172Y-99948567D01*
X148700000Y-100595395D01*
X148714143Y-100581253D01*
X148893748Y-100760858D01*
X148879605Y-100775000D01*
X149171830Y-101067225D01*
X149256082Y-101271131D01*
X149502571Y-101518051D01*
X149824789Y-101651847D01*
X150173681Y-101652151D01*
X150496131Y-101518918D01*
X150650052Y-101365265D01*
X150802571Y-101518051D01*
X151124789Y-101651847D01*
X151473681Y-101652151D01*
X151796131Y-101518918D01*
X152043051Y-101272429D01*
X152176847Y-100950211D01*
X152177151Y-100601319D01*
X152127225Y-100480487D01*
X152143357Y-100464355D01*
X152279274Y-100260941D01*
X152327001Y-100020999D01*
X152327001Y-98913873D01*
X153783521Y-98913873D01*
X153515223Y-99093144D01*
X153335952Y-99361442D01*
X153273000Y-99677921D01*
X153273000Y-100322079D01*
X153335952Y-100638558D01*
X153515223Y-100906856D01*
X153783521Y-101086127D01*
X154100000Y-101149079D01*
X154416479Y-101086127D01*
X154684777Y-100906856D01*
X154864048Y-100638558D01*
X154927000Y-100322079D01*
X154927000Y-99677921D01*
X154864048Y-99361442D01*
X154684777Y-99093144D01*
X154416479Y-98913873D01*
X154100000Y-98850921D01*
X153783521Y-98913873D01*
X152327001Y-98913873D01*
X152327001Y-97980001D01*
X152279273Y-97740058D01*
X152143357Y-97536645D01*
X148537040Y-93930328D01*
X152821219Y-93930328D01*
X153313100Y-94102522D01*
X153833434Y-94073375D01*
X154178781Y-93930328D01*
X154237542Y-93697147D01*
X153500000Y-92959605D01*
X152762458Y-93697147D01*
X151404214Y-93697147D01*
X151566846Y-93629949D01*
X151848959Y-93348328D01*
X152001825Y-92980184D01*
X152002173Y-92581564D01*
X151849949Y-92213154D01*
X151738210Y-92101219D01*
X152349672Y-92101219D01*
X152177478Y-92593100D01*
X152206625Y-93113434D01*
X152349672Y-93458781D01*
X152582853Y-93517542D01*
X153320395Y-92780000D01*
X153679605Y-92780000D01*
X154417147Y-93517542D01*
X154650328Y-93458781D01*
X154822522Y-92966900D01*
X154793375Y-92446566D01*
X154650328Y-92101219D01*
X154417147Y-92042458D01*
X153679605Y-92780000D01*
X153320395Y-92780000D01*
X153320395Y-92780000D01*
X152582853Y-92042458D01*
X152349672Y-92101219D01*
X151738210Y-92101219D01*
X151568328Y-91931041D01*
X151200184Y-91778175D01*
X150801564Y-91777827D01*
X150433154Y-91930051D01*
X150151041Y-92211672D01*
X149999817Y-92575862D01*
X149849949Y-92213154D01*
X149568328Y-91931041D01*
X149200184Y-91778175D01*
X148801564Y-91777827D01*
X148433154Y-91930051D01*
X148151041Y-92211672D01*
X147998175Y-92579816D01*
X147997827Y-92978436D01*
X148150051Y-93346846D01*
X148431672Y-93628959D01*
X148799816Y-93781825D01*
X149198436Y-93782173D01*
X149566846Y-93629949D01*
X149637138Y-93559780D01*
X149722645Y-93502645D01*
X149779281Y-93417885D01*
X149848959Y-93348328D01*
X150000183Y-92984138D01*
X150150051Y-93346846D01*
X150431672Y-93628959D01*
X150799816Y-93781825D01*
X151198436Y-93782173D01*
X151404214Y-93697147D01*
X152762458Y-93697147D01*
X151404214Y-93697147D01*
X151404214Y-93697147D01*
X152762458Y-93697147D01*
X152821219Y-93930328D01*
X148537040Y-93930328D01*
X147501899Y-92895187D01*
X147502173Y-92581564D01*
X147349949Y-92213154D01*
X147068328Y-91931041D01*
X146700184Y-91778175D01*
X146301564Y-91777827D01*
X145933154Y-91930051D01*
X141807000Y-91930051D01*
X141807000Y-91486625D01*
X153166566Y-91486625D01*
X152821219Y-91629672D01*
X152762458Y-91862853D01*
X153500000Y-92600395D01*
X154237542Y-91862853D01*
X154178781Y-91629672D01*
X153686900Y-91457478D01*
X153166566Y-91486625D01*
X141807000Y-91486625D01*
X141807000Y-90807000D01*
X158193000Y-90807000D01*
X158193000Y-94633699D01*
X158193000Y-94633699D01*
G37*
X158193000Y-94633699D02*
X158119758Y-94456440D01*
X157606264Y-93942048D01*
X156935007Y-93663318D01*
X156208182Y-93662684D01*
X155536440Y-93940242D01*
X155022048Y-94453736D01*
X154743318Y-95124993D01*
X154742684Y-95851818D01*
X155020242Y-96523560D01*
X155533736Y-97037952D01*
X156204993Y-97316682D01*
X156931818Y-97317316D01*
X157603560Y-97039758D01*
X158117952Y-96526264D01*
X158193000Y-96345528D01*
X158193000Y-96835699D01*
X155329707Y-98744561D01*
X155308193Y-98766030D01*
X155282918Y-98782918D01*
X155266207Y-98807927D01*
X155244917Y-98829173D01*
X155233255Y-98857244D01*
X155216369Y-98882516D01*
X155210502Y-98912013D01*
X155198961Y-98939792D01*
X155198929Y-98970191D01*
X155193000Y-99000000D01*
X155193000Y-102193000D01*
X144807000Y-102193000D01*
X144807000Y-101601433D01*
X148053172Y-101601433D01*
X148096508Y-101821701D01*
X148543001Y-101972972D01*
X149013396Y-101941863D01*
X149303492Y-101821701D01*
X149346828Y-101601433D01*
X148700000Y-100954605D01*
X148053172Y-101601433D01*
X144807000Y-101601433D01*
X144807000Y-101378492D01*
X147653299Y-101378492D01*
X147873567Y-101421828D01*
X148520395Y-100775000D01*
X147873567Y-100128172D01*
X147653299Y-100171508D01*
X146727000Y-100171508D01*
X146727000Y-99677921D01*
X146664048Y-99361442D01*
X146484777Y-99093144D01*
X146216479Y-98913873D01*
X145900000Y-98850921D01*
X145583521Y-98913873D01*
X145315223Y-99093144D01*
X145135952Y-99361442D01*
X145073000Y-99677921D01*
X145073000Y-100322079D01*
X145135952Y-100638558D01*
X145315223Y-100906856D01*
X145583521Y-101086127D01*
X145900000Y-101149079D01*
X146216479Y-101086127D01*
X146484777Y-100906856D01*
X146664048Y-100638558D01*
X146727000Y-100322079D01*
X146727000Y-100171508D01*
X147653299Y-100171508D01*
X146727000Y-100171508D01*
X146727000Y-100171508D01*
X147653299Y-100171508D01*
X147502028Y-100618001D01*
X147533137Y-101088396D01*
X147653299Y-101378492D01*
X144807000Y-101378492D01*
X144807000Y-99000000D01*
X144801070Y-98970186D01*
X144801038Y-98939792D01*
X144789499Y-98912016D01*
X144783631Y-98882516D01*
X144766744Y-98857243D01*
X144755083Y-98829173D01*
X144733792Y-98807927D01*
X144717082Y-98782918D01*
X144691809Y-98766031D01*
X144670293Y-98744560D01*
X143640658Y-98058137D01*
X149036604Y-98058137D01*
X148746508Y-98178299D01*
X148703172Y-98398567D01*
X149350000Y-99045395D01*
X149996828Y-98398567D01*
X149953492Y-98178299D01*
X149506999Y-98027028D01*
X149036604Y-98058137D01*
X143640658Y-98058137D01*
X141807000Y-96835699D01*
X141807000Y-96346301D01*
X141880242Y-96523560D01*
X142393736Y-97037952D01*
X143064993Y-97316682D01*
X143791818Y-97317316D01*
X144463560Y-97039758D01*
X144977952Y-96526264D01*
X145256682Y-95855007D01*
X145257316Y-95128182D01*
X144979758Y-94456440D01*
X144466264Y-93942048D01*
X143795007Y-93663318D01*
X143068182Y-93662684D01*
X142396440Y-93940242D01*
X141882048Y-94453736D01*
X141807000Y-94634472D01*
X141807000Y-91930051D01*
X145933154Y-91930051D01*
X145651041Y-92211672D01*
X145498175Y-92579816D01*
X145497827Y-92978436D01*
X145650051Y-93346846D01*
X145931672Y-93628959D01*
X146299816Y-93781825D01*
X146615388Y-93782100D01*
X151073001Y-98239713D01*
X151073001Y-98451044D01*
X150825211Y-98348153D01*
X150476319Y-98347849D01*
X150153869Y-98481082D01*
X149906949Y-98727571D01*
X149821678Y-98932927D01*
X149529605Y-99225000D01*
X149543748Y-99239143D01*
X149364143Y-99418748D01*
X149350000Y-99404605D01*
X149335858Y-99418748D01*
X149156253Y-99239143D01*
X149170395Y-99225000D01*
X148523567Y-98578172D01*
X148303299Y-98621508D01*
X148152028Y-99068001D01*
X148183137Y-99538396D01*
X148237591Y-99669860D01*
X148096508Y-99728299D01*
X148053172Y-99948567D01*
X148700000Y-100595395D01*
X148714143Y-100581253D01*
X148893748Y-100760858D01*
X148879605Y-100775000D01*
X149171830Y-101067225D01*
X149256082Y-101271131D01*
X149502571Y-101518051D01*
X149824789Y-101651847D01*
X150173681Y-101652151D01*
X150496131Y-101518918D01*
X150650052Y-101365265D01*
X150802571Y-101518051D01*
X151124789Y-101651847D01*
X151473681Y-101652151D01*
X151796131Y-101518918D01*
X152043051Y-101272429D01*
X152176847Y-100950211D01*
X152177151Y-100601319D01*
X152127225Y-100480487D01*
X152143357Y-100464355D01*
X152279274Y-100260941D01*
X152327001Y-100020999D01*
X152327001Y-98913873D01*
X153783521Y-98913873D01*
X153515223Y-99093144D01*
X153335952Y-99361442D01*
X153273000Y-99677921D01*
X153273000Y-100322079D01*
X153335952Y-100638558D01*
X153515223Y-100906856D01*
X153783521Y-101086127D01*
X154100000Y-101149079D01*
X154416479Y-101086127D01*
X154684777Y-100906856D01*
X154864048Y-100638558D01*
X154927000Y-100322079D01*
X154927000Y-99677921D01*
X154864048Y-99361442D01*
X154684777Y-99093144D01*
X154416479Y-98913873D01*
X154100000Y-98850921D01*
X153783521Y-98913873D01*
X152327001Y-98913873D01*
X152327001Y-97980001D01*
X152279273Y-97740058D01*
X152143357Y-97536645D01*
X148537040Y-93930328D01*
X152821219Y-93930328D01*
X153313100Y-94102522D01*
X153833434Y-94073375D01*
X154178781Y-93930328D01*
X154237542Y-93697147D01*
X153500000Y-92959605D01*
X152762458Y-93697147D01*
X151404214Y-93697147D01*
X151566846Y-93629949D01*
X151848959Y-93348328D01*
X152001825Y-92980184D01*
X152002173Y-92581564D01*
X151849949Y-92213154D01*
X151738210Y-92101219D01*
X152349672Y-92101219D01*
X152177478Y-92593100D01*
X152206625Y-93113434D01*
X152349672Y-93458781D01*
X152582853Y-93517542D01*
X153320395Y-92780000D01*
X153679605Y-92780000D01*
X154417147Y-93517542D01*
X154650328Y-93458781D01*
X154822522Y-92966900D01*
X154793375Y-92446566D01*
X154650328Y-92101219D01*
X154417147Y-92042458D01*
X153679605Y-92780000D01*
X153320395Y-92780000D01*
X153320395Y-92780000D01*
X152582853Y-92042458D01*
X152349672Y-92101219D01*
X151738210Y-92101219D01*
X151568328Y-91931041D01*
X151200184Y-91778175D01*
X150801564Y-91777827D01*
X150433154Y-91930051D01*
X150151041Y-92211672D01*
X149999817Y-92575862D01*
X149849949Y-92213154D01*
X149568328Y-91931041D01*
X149200184Y-91778175D01*
X148801564Y-91777827D01*
X148433154Y-91930051D01*
X148151041Y-92211672D01*
X147998175Y-92579816D01*
X147997827Y-92978436D01*
X148150051Y-93346846D01*
X148431672Y-93628959D01*
X148799816Y-93781825D01*
X149198436Y-93782173D01*
X149566846Y-93629949D01*
X149637138Y-93559780D01*
X149722645Y-93502645D01*
X149779281Y-93417885D01*
X149848959Y-93348328D01*
X150000183Y-92984138D01*
X150150051Y-93346846D01*
X150431672Y-93628959D01*
X150799816Y-93781825D01*
X151198436Y-93782173D01*
X151404214Y-93697147D01*
X152762458Y-93697147D01*
X151404214Y-93697147D01*
X151404214Y-93697147D01*
X152762458Y-93697147D01*
X152821219Y-93930328D01*
X148537040Y-93930328D01*
X147501899Y-92895187D01*
X147502173Y-92581564D01*
X147349949Y-92213154D01*
X147068328Y-91931041D01*
X146700184Y-91778175D01*
X146301564Y-91777827D01*
X145933154Y-91930051D01*
X141807000Y-91930051D01*
X141807000Y-91486625D01*
X153166566Y-91486625D01*
X152821219Y-91629672D01*
X152762458Y-91862853D01*
X153500000Y-92600395D01*
X154237542Y-91862853D01*
X154178781Y-91629672D01*
X153686900Y-91457478D01*
X153166566Y-91486625D01*
X141807000Y-91486625D01*
X141807000Y-90807000D01*
X158193000Y-90807000D01*
X158193000Y-94633699D01*
M02*
